<svg width="1103" height="969" xmlns="http://www.w3.org/2000/svg" version="1.1">
    <g>
        <path d="M8,892
                l500,-866
                a50 50 0 0 1 87,0
                l500,866
                a50 50 0 0 1 -43,75
                l-700,0
                a50 50 0 0 1 -43,-75
                l150,-260
                a50 50 0 0 1 87,50
                l-85,147
                a25 25 0 0 0 22,37
                l435,0
                a25 25 0 0 0 22,-37
                l-366,-633.931
                a25 25 0 0 0 -44,0
                l-432.5,749
                a50 50 0 0 1 -89.5,-52
                z" fill="#66ccff" />
    </g>
</svg>